<svg width="370" height="490" viewBox="0 0 370 490" fill="none" xmlns="http://www.w3.org/2000/svg">
<path d="M111.911 35.24C113.245 35.24 114.258 35.4 114.951 35.72C115.645 36.0133 116.258 36.3467 116.791 36.72C117.111 36.9067 117.365 37.0533 117.551 37.16C117.765 37.24 117.965 37.28 118.151 37.28C118.418 37.28 118.605 37.1333 118.711 36.84C118.845 36.5467 118.951 36.1067 119.031 35.52H119.951C119.925 35.9733 119.885 36.52 119.831 37.16C119.805 37.7733 119.778 38.6 119.751 39.64C119.751 40.6533 119.751 42 119.751 43.68H118.831C118.751 42.4 118.471 41.1733 117.991 40C117.511 38.8267 116.805 37.8667 115.871 37.12C114.965 36.3733 113.765 36 112.271 36C110.858 36 109.685 36.4267 108.751 37.28C107.845 38.1333 107.391 39.2533 107.391 40.64C107.391 41.5467 107.565 42.3333 107.911 43C108.285 43.6667 108.778 44.28 109.391 44.84C110.031 45.3733 110.751 45.8933 111.551 46.4C112.351 46.88 113.205 47.4 114.111 47.96C115.498 48.8133 116.725 49.6667 117.791 50.52C118.885 51.3467 119.738 52.2667 120.351 53.28C120.991 54.2933 121.311 55.52 121.311 56.96C121.311 58.6667 120.925 60.08 120.151 61.2C119.378 62.32 118.351 63.16 117.071 63.72C115.791 64.28 114.378 64.56 112.831 64.56C111.418 64.56 110.298 64.4 109.471 64.08C108.645 63.76 107.938 63.4267 107.351 63.08C107.031 62.8667 106.765 62.72 106.551 62.64C106.338 62.56 106.151 62.52 105.991 62.52C105.725 62.52 105.525 62.6667 105.391 62.96C105.285 63.2533 105.191 63.6933 105.111 64.28H104.191C104.245 63.72 104.271 63.0667 104.271 62.32C104.298 61.5467 104.311 60.5467 104.311 59.32C104.338 58.0933 104.351 56.5467 104.351 54.68H105.271C105.351 55.88 105.538 57.0267 105.831 58.12C106.125 59.2133 106.551 60.1867 107.111 61.04C107.671 61.8933 108.391 62.56 109.271 63.04C110.178 63.52 111.271 63.76 112.551 63.76C113.431 63.76 114.258 63.5867 115.031 63.24C115.831 62.8667 116.485 62.2933 116.991 61.52C117.498 60.72 117.751 59.6933 117.751 58.44C117.751 57.64 117.605 56.9067 117.311 56.24C117.018 55.5733 116.591 54.96 116.031 54.4C115.471 53.84 114.805 53.2933 114.031 52.76C113.285 52.2267 112.445 51.68 111.511 51.12C110.258 50.3467 109.085 49.56 107.991 48.76C106.898 47.96 106.018 47.04 105.351 46C104.711 44.9333 104.391 43.6533 104.391 42.16C104.391 40.5867 104.738 39.2933 105.431 38.28C106.151 37.24 107.085 36.48 108.231 36C109.378 35.4933 110.605 35.24 111.911 35.24ZM111.311 30.4V69.28H110.511V30.4H111.311ZM114.671 30.4V69.28H113.871V30.4H114.671Z" fill="white"/>
<path d="M150.235 28.232V56.996C150.235 59.172 150.734 60.6453 151.731 61.416C152.729 62.1867 154.406 62.572 156.763 62.572V64C155.857 63.9547 154.519 63.9093 152.751 63.864C151.029 63.7733 149.238 63.728 147.379 63.728C145.294 63.728 143.277 63.7733 141.327 63.864C139.423 63.9093 137.95 63.9547 136.907 64V62.572C139.174 62.572 140.942 62.2093 142.211 61.484C143.481 60.7133 144.115 59.2173 144.115 56.996V40.54C144.115 38.364 143.889 36.7547 143.435 35.712C142.982 34.6693 142.166 33.9893 140.987 33.672C139.854 33.3547 138.267 33.196 136.227 33.196V31.7C139.491 31.6093 142.211 31.3147 144.387 30.816C146.563 30.3173 148.513 29.456 150.235 28.232ZM187.19 17.692V29.048H197.254V30.408H187.19V56.724C187.19 58.8547 187.575 60.3507 188.346 61.212C189.116 62.0733 190.182 62.504 191.542 62.504C192.902 62.504 194.08 61.96 195.078 60.872C196.075 59.7387 196.936 57.8573 197.662 55.228L199.022 55.568C198.568 58.1973 197.662 60.4187 196.302 62.232C194.987 64.0453 192.947 64.952 190.182 64.952C188.64 64.952 187.371 64.748 186.374 64.34C185.376 63.9773 184.492 63.4333 183.722 62.708C182.724 61.6653 182.022 60.4187 181.614 58.968C181.251 57.5173 181.07 55.5907 181.07 53.188V30.408H174.542V29.048H181.07V18.644C182.203 18.5987 183.291 18.508 184.334 18.372C185.376 18.236 186.328 18.0093 187.19 17.692ZM221.429 28.028C222.653 28.028 223.718 28.2773 224.625 28.776C225.577 29.2747 226.302 29.932 226.801 30.748C227.345 31.5187 227.617 32.4027 227.617 33.4C227.617 34.5333 227.254 35.5307 226.529 36.392C225.849 37.2533 224.919 37.684 223.741 37.684C222.789 37.684 221.95 37.3893 221.225 36.8C220.499 36.1653 220.137 35.2813 220.137 34.148C220.137 33.2867 220.363 32.5613 220.817 31.972C221.315 31.3373 221.859 30.8387 222.449 30.476C222.131 30.0227 221.655 29.796 221.021 29.796C219.615 29.796 218.323 30.2267 217.145 31.088C215.966 31.904 214.969 32.9693 214.153 34.284C213.337 35.5987 212.702 37.004 212.249 38.5C211.795 39.9507 211.569 41.3107 211.569 42.58V56.996C211.569 59.2173 212.203 60.7133 213.473 61.484C214.787 62.2093 216.555 62.572 218.777 62.572V64C217.734 63.9547 216.261 63.9093 214.357 63.864C212.453 63.7733 210.435 63.728 208.305 63.728C206.763 63.728 205.222 63.7733 203.681 63.864C202.185 63.9093 201.051 63.9547 200.281 64V62.572C202.139 62.572 203.454 62.232 204.225 61.552C205.041 60.872 205.449 59.58 205.449 57.676V36.392C205.449 34.352 205.086 32.856 204.361 31.904C203.635 30.9067 202.275 30.408 200.281 30.408V28.98C201.731 29.116 203.137 29.184 204.497 29.184C205.811 29.184 207.058 29.116 208.237 28.98C209.461 28.7987 210.571 28.5493 211.569 28.232V36.732C212.067 35.4173 212.77 34.1027 213.677 32.788C214.629 31.428 215.762 30.2947 217.077 29.388C218.391 28.4813 219.842 28.028 221.429 28.028ZM238.314 11.98C239.493 11.98 240.513 12.4107 241.374 13.272C242.235 14.1333 242.666 15.1533 242.666 16.332C242.666 17.5107 242.235 18.5307 241.374 19.392C240.513 20.2533 239.493 20.684 238.314 20.684C237.135 20.684 236.115 20.2533 235.254 19.392C234.393 18.5307 233.962 17.5107 233.962 16.332C233.962 15.1533 234.393 14.1333 235.254 13.272C236.115 12.4107 237.135 11.98 238.314 11.98ZM241.85 28.232V57.676C241.85 59.58 242.235 60.872 243.006 61.552C243.822 62.232 245.159 62.572 247.018 62.572V64C246.247 63.9547 245.069 63.9093 243.482 63.864C241.941 63.7733 240.377 63.728 238.79 63.728C237.249 63.728 235.685 63.7733 234.098 63.864C232.511 63.9093 231.333 63.9547 230.562 64V62.572C232.421 62.572 233.735 62.232 234.506 61.552C235.322 60.872 235.73 59.58 235.73 57.676V36.392C235.73 34.352 235.367 32.856 234.642 31.904C233.917 30.9067 232.557 30.408 230.562 30.408V28.98C232.013 29.116 233.418 29.184 234.778 29.184C236.093 29.184 237.339 29.116 238.518 28.98C239.742 28.7987 240.853 28.5493 241.85 28.232ZM261.296 10.688V57.676C261.296 59.58 261.681 60.872 262.452 61.552C263.268 62.232 264.605 62.572 266.464 62.572V64C265.693 63.9547 264.514 63.9093 262.928 63.864C261.386 63.7733 259.822 63.728 258.236 63.728C256.694 63.728 255.13 63.7733 253.544 63.864C251.957 63.9093 250.778 63.9547 250.008 64V62.572C251.866 62.572 253.181 62.232 253.952 61.552C254.768 60.872 255.176 59.58 255.176 57.676V18.848C255.176 16.808 254.813 15.312 254.088 14.36C253.362 13.3627 252.002 12.864 250.008 12.864V11.436C251.458 11.572 252.864 11.64 254.224 11.64C255.538 11.64 256.785 11.572 257.964 11.436C259.188 11.2547 260.298 11.0053 261.296 10.688Z" fill="white"/>
<path opacity="0.8" d="M119.562 91.265V104H118.761V93.146C118.761 92.99 118.77 92.825 118.788 92.651L113.775 101.552C113.691 101.708 113.571 101.786 113.415 101.786H113.271C113.115 101.786 112.995 101.708 112.911 101.552L107.763 92.633C107.781 92.813 107.79 92.984 107.79 93.146V104H106.98V91.265H107.619C107.703 91.265 107.769 91.274 107.817 91.292C107.865 91.31 107.913 91.358 107.961 91.436L113.1 100.292C113.19 100.46 113.268 100.64 113.334 100.832C113.37 100.736 113.409 100.643 113.451 100.553C113.493 100.457 113.538 100.367 113.586 100.283L118.581 91.436C118.629 91.358 118.677 91.31 118.725 91.292C118.779 91.274 118.848 91.265 118.932 91.265H119.562ZM127.619 99.671C126.767 99.701 126.032 99.77 125.414 99.878C124.802 99.98 124.295 100.121 123.893 100.301C123.497 100.481 123.203 100.697 123.011 100.949C122.819 101.195 122.723 101.477 122.723 101.795C122.723 102.095 122.771 102.356 122.867 102.578C122.969 102.794 123.101 102.974 123.263 103.118C123.431 103.256 123.623 103.358 123.839 103.424C124.055 103.49 124.28 103.523 124.514 103.523C124.862 103.523 125.18 103.487 125.468 103.415C125.762 103.337 126.032 103.232 126.278 103.1C126.53 102.962 126.764 102.8 126.98 102.614C127.196 102.428 127.409 102.227 127.619 102.011V99.671ZM122.354 96.314C122.822 95.846 123.314 95.492 123.83 95.252C124.346 95.012 124.931 94.892 125.585 94.892C126.065 94.892 126.485 94.97 126.845 95.126C127.205 95.276 127.502 95.495 127.736 95.783C127.976 96.065 128.156 96.41 128.276 96.818C128.396 97.22 128.456 97.67 128.456 98.168V104H128.114C127.934 104 127.823 103.916 127.781 103.748L127.655 102.596C127.409 102.836 127.163 103.052 126.917 103.244C126.677 103.436 126.425 103.598 126.161 103.73C125.897 103.862 125.612 103.964 125.306 104.036C125 104.108 124.664 104.144 124.298 104.144C123.992 104.144 123.695 104.099 123.407 104.009C123.119 103.919 122.861 103.781 122.633 103.595C122.411 103.409 122.231 103.172 122.093 102.884C121.961 102.59 121.895 102.239 121.895 101.831C121.895 101.453 122.003 101.102 122.219 100.778C122.435 100.454 122.774 100.172 123.236 99.932C123.698 99.692 124.289 99.5 125.009 99.356C125.735 99.212 126.605 99.128 127.619 99.104V98.168C127.619 97.34 127.439 96.704 127.079 96.26C126.725 95.81 126.197 95.585 125.495 95.585C125.063 95.585 124.694 95.645 124.388 95.765C124.088 95.885 123.833 96.017 123.623 96.161C123.413 96.305 123.242 96.437 123.11 96.557C122.978 96.677 122.867 96.737 122.777 96.737C122.711 96.737 122.657 96.722 122.615 96.692C122.573 96.662 122.537 96.623 122.507 96.575L122.354 96.314ZM132.144 97.205C132.282 96.839 132.438 96.515 132.612 96.233C132.792 95.945 132.996 95.702 133.224 95.504C133.458 95.306 133.716 95.156 133.998 95.054C134.286 94.946 134.604 94.892 134.952 94.892C135.138 94.892 135.321 94.91 135.501 94.946C135.681 94.976 135.84 95.033 135.978 95.117L135.906 95.711C135.876 95.807 135.819 95.855 135.735 95.855C135.663 95.855 135.552 95.834 135.402 95.792C135.258 95.75 135.066 95.729 134.826 95.729C134.478 95.729 134.169 95.783 133.899 95.891C133.635 95.993 133.395 96.149 133.179 96.359C132.969 96.569 132.783 96.83 132.621 97.142C132.465 97.448 132.321 97.802 132.189 98.204V104H131.325V95.045H131.784C131.886 95.045 131.958 95.066 132 95.108C132.042 95.15 132.069 95.222 132.081 95.324L132.144 97.205ZM138.552 90.905V98.888H138.966C139.05 98.888 139.128 98.876 139.2 98.852C139.278 98.828 139.362 98.771 139.452 98.681L143.043 95.27C143.103 95.198 143.169 95.144 143.241 95.108C143.313 95.066 143.403 95.045 143.511 95.045H144.267L140.316 98.798C140.208 98.924 140.091 99.023 139.965 99.095C140.061 99.143 140.142 99.2 140.208 99.266C140.28 99.326 140.349 99.398 140.415 99.482L144.564 104H143.817C143.733 104 143.655 103.988 143.583 103.964C143.517 103.934 143.454 103.877 143.394 103.793L139.632 99.761C139.584 99.707 139.536 99.662 139.488 99.626C139.446 99.59 139.401 99.563 139.353 99.545C139.305 99.521 139.248 99.506 139.182 99.5C139.122 99.488 139.047 99.482 138.957 99.482H138.552V104H137.688V90.905H138.552ZM151.95 98.618C151.95 98.138 151.881 97.709 151.743 97.331C151.611 96.947 151.422 96.623 151.176 96.359C150.93 96.095 150.636 95.894 150.294 95.756C149.958 95.612 149.586 95.54 149.178 95.54C148.716 95.54 148.302 95.612 147.936 95.756C147.57 95.9 147.252 96.107 146.982 96.377C146.718 96.647 146.505 96.971 146.343 97.349C146.181 97.727 146.073 98.15 146.019 98.618H151.95ZM145.974 99.167V99.338C145.974 100.01 146.052 100.601 146.208 101.111C146.364 101.621 146.586 102.05 146.874 102.398C147.162 102.74 147.51 102.998 147.918 103.172C148.326 103.346 148.782 103.433 149.286 103.433C149.736 103.433 150.126 103.385 150.456 103.289C150.786 103.187 151.062 103.076 151.284 102.956C151.512 102.83 151.692 102.719 151.824 102.623C151.956 102.521 152.052 102.47 152.112 102.47C152.19 102.47 152.25 102.5 152.292 102.56L152.526 102.848C152.382 103.028 152.19 103.196 151.95 103.352C151.716 103.508 151.452 103.643 151.158 103.757C150.87 103.865 150.558 103.952 150.222 104.018C149.892 104.084 149.559 104.117 149.223 104.117C148.611 104.117 148.053 104.012 147.549 103.802C147.045 103.586 146.613 103.274 146.253 102.866C145.893 102.458 145.614 101.96 145.416 101.372C145.224 100.778 145.128 100.1 145.128 99.338C145.128 98.696 145.218 98.105 145.398 97.565C145.584 97.019 145.848 96.551 146.19 96.161C146.538 95.765 146.961 95.456 147.459 95.234C147.963 95.012 148.533 94.901 149.169 94.901C149.673 94.901 150.141 94.988 150.573 95.162C151.005 95.336 151.38 95.591 151.698 95.927C152.016 96.257 152.265 96.665 152.445 97.151C152.631 97.637 152.724 98.195 152.724 98.825C152.724 98.957 152.706 99.047 152.67 99.095C152.634 99.143 152.574 99.167 152.49 99.167H145.974ZM157.468 104.144C156.862 104.144 156.388 103.976 156.046 103.64C155.71 103.304 155.542 102.785 155.542 102.083V95.963H154.255C154.189 95.963 154.135 95.945 154.093 95.909C154.051 95.873 154.03 95.822 154.03 95.756V95.423L155.56 95.315L155.776 92.111C155.788 92.057 155.812 92.009 155.848 91.967C155.884 91.925 155.935 91.904 156.001 91.904H156.406V95.324H159.232V95.963H156.406V102.038C156.406 102.284 156.436 102.497 156.496 102.677C156.562 102.851 156.649 102.995 156.757 103.109C156.871 103.223 157.003 103.307 157.153 103.361C157.303 103.415 157.465 103.442 157.639 103.442C157.855 103.442 158.041 103.412 158.197 103.352C158.353 103.286 158.488 103.217 158.602 103.145C158.716 103.067 158.809 102.998 158.881 102.938C158.953 102.872 159.01 102.839 159.052 102.839C159.1 102.839 159.148 102.869 159.196 102.929L159.43 103.307C159.202 103.559 158.911 103.763 158.557 103.919C158.209 104.069 157.846 104.144 157.468 104.144ZM172.098 96.242C172.068 96.272 172.038 96.299 172.008 96.323C171.984 96.341 171.948 96.35 171.9 96.35C171.84 96.35 171.759 96.311 171.657 96.233C171.555 96.149 171.417 96.059 171.243 95.963C171.069 95.867 170.85 95.78 170.586 95.702C170.328 95.618 170.013 95.576 169.641 95.576C169.125 95.576 168.666 95.669 168.264 95.855C167.868 96.035 167.532 96.296 167.256 96.638C166.98 96.98 166.77 97.394 166.626 97.88C166.488 98.366 166.419 98.912 166.419 99.518C166.419 100.148 166.491 100.706 166.635 101.192C166.785 101.678 166.995 102.089 167.265 102.425C167.535 102.755 167.862 103.007 168.246 103.181C168.63 103.355 169.056 103.442 169.524 103.442C169.956 103.442 170.316 103.391 170.604 103.289C170.898 103.187 171.138 103.076 171.324 102.956C171.516 102.836 171.666 102.725 171.774 102.623C171.882 102.521 171.972 102.47 172.044 102.47C172.116 102.47 172.176 102.5 172.224 102.56L172.449 102.848C172.311 103.028 172.137 103.196 171.927 103.352C171.717 103.508 171.48 103.643 171.216 103.757C170.952 103.871 170.664 103.958 170.352 104.018C170.046 104.084 169.725 104.117 169.389 104.117C168.819 104.117 168.297 104.015 167.823 103.811C167.355 103.601 166.95 103.301 166.608 102.911C166.272 102.515 166.008 102.032 165.816 101.462C165.63 100.892 165.537 100.244 165.537 99.518C165.537 98.834 165.627 98.21 165.807 97.646C165.987 97.082 166.251 96.596 166.599 96.188C166.947 95.78 167.37 95.465 167.868 95.243C168.372 95.015 168.948 94.901 169.596 94.901C170.178 94.901 170.694 94.994 171.144 95.18C171.594 95.366 171.987 95.618 172.323 95.936L172.098 96.242ZM179.58 99.671C178.728 99.701 177.993 99.77 177.375 99.878C176.763 99.98 176.256 100.121 175.854 100.301C175.458 100.481 175.164 100.697 174.972 100.949C174.78 101.195 174.684 101.477 174.684 101.795C174.684 102.095 174.732 102.356 174.828 102.578C174.93 102.794 175.062 102.974 175.224 103.118C175.392 103.256 175.584 103.358 175.8 103.424C176.016 103.49 176.241 103.523 176.475 103.523C176.823 103.523 177.141 103.487 177.429 103.415C177.723 103.337 177.993 103.232 178.239 103.1C178.491 102.962 178.725 102.8 178.941 102.614C179.157 102.428 179.37 102.227 179.58 102.011V99.671ZM174.315 96.314C174.783 95.846 175.275 95.492 175.791 95.252C176.307 95.012 176.892 94.892 177.546 94.892C178.026 94.892 178.446 94.97 178.806 95.126C179.166 95.276 179.463 95.495 179.697 95.783C179.937 96.065 180.117 96.41 180.237 96.818C180.357 97.22 180.417 97.67 180.417 98.168V104H180.075C179.895 104 179.784 103.916 179.742 103.748L179.616 102.596C179.37 102.836 179.124 103.052 178.878 103.244C178.638 103.436 178.386 103.598 178.122 103.73C177.858 103.862 177.573 103.964 177.267 104.036C176.961 104.108 176.625 104.144 176.259 104.144C175.953 104.144 175.656 104.099 175.368 104.009C175.08 103.919 174.822 103.781 174.594 103.595C174.372 103.409 174.192 103.172 174.054 102.884C173.922 102.59 173.856 102.239 173.856 101.831C173.856 101.453 173.964 101.102 174.18 100.778C174.396 100.454 174.735 100.172 175.197 99.932C175.659 99.692 176.25 99.5 176.97 99.356C177.696 99.212 178.566 99.128 179.58 99.104V98.168C179.58 97.34 179.4 96.704 179.04 96.26C178.686 95.81 178.158 95.585 177.456 95.585C177.024 95.585 176.655 95.645 176.349 95.765C176.049 95.885 175.794 96.017 175.584 96.161C175.374 96.305 175.203 96.437 175.071 96.557C174.939 96.677 174.828 96.737 174.738 96.737C174.672 96.737 174.618 96.722 174.576 96.692C174.534 96.662 174.498 96.623 174.468 96.575L174.315 96.314ZM184.15 102.047C184.324 102.305 184.504 102.524 184.69 102.704C184.882 102.878 185.083 103.022 185.293 103.136C185.503 103.244 185.725 103.322 185.959 103.37C186.199 103.418 186.451 103.442 186.715 103.442C187.243 103.442 187.705 103.346 188.101 103.154C188.497 102.962 188.827 102.692 189.091 102.344C189.361 101.99 189.562 101.57 189.694 101.084C189.832 100.592 189.901 100.052 189.901 99.464C189.901 98.132 189.655 97.154 189.163 96.53C188.671 95.9 187.966 95.585 187.048 95.585C186.454 95.585 185.917 95.738 185.437 96.044C184.957 96.35 184.528 96.776 184.15 97.322V102.047ZM184.114 96.656C184.51 96.116 184.972 95.687 185.5 95.369C186.034 95.051 186.631 94.892 187.291 94.892C188.389 94.892 189.244 95.273 189.856 96.035C190.474 96.797 190.783 97.94 190.783 99.464C190.783 100.118 190.696 100.73 190.522 101.3C190.354 101.864 190.102 102.356 189.766 102.776C189.436 103.19 189.028 103.517 188.542 103.757C188.062 103.997 187.507 104.117 186.877 104.117C186.271 104.117 185.746 104.006 185.302 103.784C184.858 103.562 184.474 103.235 184.15 102.803V107.168H183.286V95.045H183.763C183.913 95.045 184 95.12 184.024 95.27L184.114 96.656ZM198.968 102.047C199.142 102.305 199.322 102.524 199.508 102.704C199.7 102.878 199.901 103.022 200.111 103.136C200.321 103.244 200.543 103.322 200.777 103.37C201.017 103.418 201.269 103.442 201.533 103.442C202.061 103.442 202.523 103.346 202.919 103.154C203.315 102.962 203.645 102.692 203.909 102.344C204.179 101.99 204.38 101.57 204.512 101.084C204.65 100.592 204.719 100.052 204.719 99.464C204.719 98.132 204.473 97.154 203.981 96.53C203.489 95.9 202.784 95.585 201.866 95.585C201.272 95.585 200.735 95.738 200.255 96.044C199.775 96.35 199.346 96.776 198.968 97.322V102.047ZM198.932 96.656C199.328 96.116 199.79 95.687 200.318 95.369C200.852 95.051 201.449 94.892 202.109 94.892C203.207 94.892 204.062 95.273 204.674 96.035C205.292 96.797 205.601 97.94 205.601 99.464C205.601 100.118 205.514 100.73 205.34 101.3C205.172 101.864 204.92 102.356 204.584 102.776C204.254 103.19 203.846 103.517 203.36 103.757C202.88 103.997 202.325 104.117 201.695 104.117C201.089 104.117 200.564 104.006 200.12 103.784C199.676 103.562 199.292 103.235 198.968 102.803V107.168H198.104V95.045H198.581C198.731 95.045 198.818 95.12 198.842 95.27L198.932 96.656ZM211.582 94.901C212.224 94.901 212.797 95.012 213.301 95.234C213.811 95.45 214.24 95.759 214.588 96.161C214.936 96.563 215.2 97.049 215.38 97.619C215.566 98.183 215.659 98.816 215.659 99.518C215.659 100.22 215.566 100.853 215.38 101.417C215.2 101.981 214.936 102.464 214.588 102.866C214.24 103.268 213.811 103.577 213.301 103.793C212.797 104.009 212.224 104.117 211.582 104.117C210.94 104.117 210.364 104.009 209.854 103.793C209.35 103.577 208.921 103.268 208.567 102.866C208.219 102.464 207.952 101.981 207.766 101.417C207.586 100.853 207.496 100.22 207.496 99.518C207.496 98.816 207.586 98.183 207.766 97.619C207.952 97.049 208.219 96.563 208.567 96.161C208.921 95.759 209.35 95.45 209.854 95.234C210.364 95.012 210.94 94.901 211.582 94.901ZM211.582 103.442C212.116 103.442 212.581 103.352 212.977 103.172C213.379 102.986 213.712 102.722 213.976 102.38C214.246 102.038 214.447 101.627 214.579 101.147C214.711 100.661 214.777 100.118 214.777 99.518C214.777 98.924 214.711 98.384 214.579 97.898C214.447 97.412 214.246 96.998 213.976 96.656C213.712 96.308 213.379 96.041 212.977 95.855C212.581 95.669 212.116 95.576 211.582 95.576C211.048 95.576 210.58 95.669 210.178 95.855C209.782 96.041 209.449 96.308 209.179 96.656C208.915 96.998 208.714 97.412 208.576 97.898C208.444 98.384 208.378 98.924 208.378 99.518C208.378 100.118 208.444 100.661 208.576 101.147C208.714 101.627 208.915 102.038 209.179 102.38C209.449 102.722 209.782 102.986 210.178 103.172C210.58 103.352 211.048 103.442 211.582 103.442ZM220.362 104.144C219.756 104.144 219.282 103.976 218.94 103.64C218.604 103.304 218.436 102.785 218.436 102.083V95.963H217.149C217.083 95.963 217.029 95.945 216.987 95.909C216.945 95.873 216.924 95.822 216.924 95.756V95.423L218.454 95.315L218.67 92.111C218.682 92.057 218.706 92.009 218.742 91.967C218.778 91.925 218.829 91.904 218.895 91.904H219.3V95.324H222.126V95.963H219.3V102.038C219.3 102.284 219.33 102.497 219.39 102.677C219.456 102.851 219.543 102.995 219.651 103.109C219.765 103.223 219.897 103.307 220.047 103.361C220.197 103.415 220.359 103.442 220.533 103.442C220.749 103.442 220.935 103.412 221.091 103.352C221.247 103.286 221.382 103.217 221.496 103.145C221.61 103.067 221.703 102.998 221.775 102.938C221.847 102.872 221.904 102.839 221.946 102.839C221.994 102.839 222.042 102.869 222.09 102.929L222.324 103.307C222.096 103.559 221.805 103.763 221.451 103.919C221.103 104.069 220.74 104.144 220.362 104.144ZM230.331 98.618C230.331 98.138 230.262 97.709 230.124 97.331C229.992 96.947 229.803 96.623 229.557 96.359C229.311 96.095 229.017 95.894 228.675 95.756C228.339 95.612 227.967 95.54 227.559 95.54C227.097 95.54 226.683 95.612 226.317 95.756C225.951 95.9 225.633 96.107 225.363 96.377C225.099 96.647 224.886 96.971 224.724 97.349C224.562 97.727 224.454 98.15 224.4 98.618H230.331ZM224.355 99.167V99.338C224.355 100.01 224.433 100.601 224.589 101.111C224.745 101.621 224.967 102.05 225.255 102.398C225.543 102.74 225.891 102.998 226.299 103.172C226.707 103.346 227.163 103.433 227.667 103.433C228.117 103.433 228.507 103.385 228.837 103.289C229.167 103.187 229.443 103.076 229.665 102.956C229.893 102.83 230.073 102.719 230.205 102.623C230.337 102.521 230.433 102.47 230.493 102.47C230.571 102.47 230.631 102.5 230.673 102.56L230.907 102.848C230.763 103.028 230.571 103.196 230.331 103.352C230.097 103.508 229.833 103.643 229.539 103.757C229.251 103.865 228.939 103.952 228.603 104.018C228.273 104.084 227.94 104.117 227.604 104.117C226.992 104.117 226.434 104.012 225.93 103.802C225.426 103.586 224.994 103.274 224.634 102.866C224.274 102.458 223.995 101.96 223.797 101.372C223.605 100.778 223.509 100.1 223.509 99.338C223.509 98.696 223.599 98.105 223.779 97.565C223.965 97.019 224.229 96.551 224.571 96.161C224.919 95.765 225.342 95.456 225.84 95.234C226.344 95.012 226.914 94.901 227.55 94.901C228.054 94.901 228.522 94.988 228.954 95.162C229.386 95.336 229.761 95.591 230.079 95.927C230.397 96.257 230.646 96.665 230.826 97.151C231.012 97.637 231.105 98.195 231.105 98.825C231.105 98.957 231.087 99.047 231.051 99.095C231.015 99.143 230.955 99.167 230.871 99.167H224.355ZM234.255 96.611C234.669 96.095 235.146 95.681 235.686 95.369C236.232 95.057 236.838 94.901 237.504 94.901C237.996 94.901 238.428 94.979 238.8 95.135C239.178 95.291 239.49 95.516 239.736 95.81C239.982 96.104 240.168 96.458 240.294 96.872C240.42 97.286 240.483 97.754 240.483 98.276V104H239.619V98.276C239.619 97.436 239.427 96.779 239.043 96.305C238.659 95.825 238.074 95.585 237.288 95.585C236.706 95.585 236.16 95.735 235.65 96.035C235.146 96.329 234.696 96.74 234.3 97.268V104H233.436V95.045H233.913C234.063 95.045 234.15 95.12 234.174 95.27L234.255 96.611ZM250.643 104H249.779V95.963H244.595V102.038C244.595 102.284 244.625 102.497 244.685 102.677C244.751 102.851 244.838 102.995 244.946 103.109C245.06 103.223 245.192 103.307 245.342 103.361C245.492 103.415 245.654 103.442 245.828 103.442C246.044 103.442 246.23 103.412 246.386 103.352C246.542 103.286 246.677 103.217 246.791 103.145C246.905 103.067 246.998 102.998 247.07 102.938C247.142 102.872 247.199 102.839 247.241 102.839C247.289 102.839 247.337 102.869 247.385 102.929L247.619 103.307C247.391 103.559 247.1 103.763 246.746 103.919C246.398 104.069 246.035 104.144 245.657 104.144C245.051 104.144 244.577 103.976 244.235 103.64C243.899 103.304 243.731 102.785 243.731 102.083V95.963H242.444C242.378 95.963 242.324 95.945 242.282 95.909C242.24 95.873 242.219 95.822 242.219 95.756V95.423L243.749 95.315L243.965 92.111C243.977 92.057 244.001 92.009 244.037 91.967C244.073 91.925 244.124 91.904 244.19 91.904H244.595V95.324H250.643V104ZM251.039 91.85C251.039 91.958 251.015 92.06 250.967 92.156C250.925 92.246 250.865 92.327 250.787 92.399C250.715 92.471 250.631 92.528 250.535 92.57C250.439 92.612 250.337 92.633 250.229 92.633C250.121 92.633 250.019 92.612 249.923 92.57C249.827 92.528 249.743 92.471 249.671 92.399C249.599 92.327 249.542 92.246 249.5 92.156C249.458 92.06 249.437 91.958 249.437 91.85C249.437 91.742 249.458 91.64 249.5 91.544C249.542 91.442 249.599 91.355 249.671 91.283C249.743 91.211 249.827 91.154 249.923 91.112C250.019 91.07 250.121 91.049 250.229 91.049C250.337 91.049 250.439 91.07 250.535 91.112C250.631 91.154 250.715 91.211 250.787 91.283C250.865 91.355 250.925 91.442 250.967 91.544C251.015 91.64 251.039 91.742 251.039 91.85ZM258.699 99.671C257.847 99.701 257.112 99.77 256.494 99.878C255.882 99.98 255.375 100.121 254.973 100.301C254.577 100.481 254.283 100.697 254.091 100.949C253.899 101.195 253.803 101.477 253.803 101.795C253.803 102.095 253.851 102.356 253.947 102.578C254.049 102.794 254.181 102.974 254.343 103.118C254.511 103.256 254.703 103.358 254.919 103.424C255.135 103.49 255.36 103.523 255.594 103.523C255.942 103.523 256.26 103.487 256.548 103.415C256.842 103.337 257.112 103.232 257.358 103.1C257.61 102.962 257.844 102.8 258.06 102.614C258.276 102.428 258.489 102.227 258.699 102.011V99.671ZM253.434 96.314C253.902 95.846 254.394 95.492 254.91 95.252C255.426 95.012 256.011 94.892 256.665 94.892C257.145 94.892 257.565 94.97 257.925 95.126C258.285 95.276 258.582 95.495 258.816 95.783C259.056 96.065 259.236 96.41 259.356 96.818C259.476 97.22 259.536 97.67 259.536 98.168V104H259.194C259.014 104 258.903 103.916 258.861 103.748L258.735 102.596C258.489 102.836 258.243 103.052 257.997 103.244C257.757 103.436 257.505 103.598 257.241 103.73C256.977 103.862 256.692 103.964 256.386 104.036C256.08 104.108 255.744 104.144 255.378 104.144C255.072 104.144 254.775 104.099 254.487 104.009C254.199 103.919 253.941 103.781 253.713 103.595C253.491 103.409 253.311 103.172 253.173 102.884C253.041 102.59 252.975 102.239 252.975 101.831C252.975 101.453 253.083 101.102 253.299 100.778C253.515 100.454 253.854 100.172 254.316 99.932C254.778 99.692 255.369 99.5 256.089 99.356C256.815 99.212 257.685 99.128 258.699 99.104V98.168C258.699 97.34 258.519 96.704 258.159 96.26C257.805 95.81 257.277 95.585 256.575 95.585C256.143 95.585 255.774 95.645 255.468 95.765C255.168 95.885 254.913 96.017 254.703 96.161C254.493 96.305 254.322 96.437 254.19 96.557C254.058 96.677 253.947 96.737 253.857 96.737C253.791 96.737 253.737 96.722 253.695 96.692C253.653 96.662 253.617 96.623 253.587 96.575L253.434 96.314ZM263.35 90.905V104H262.486V90.905H263.35Z" fill="white"/>
<rect x="135" y="150" width="100" height="0" stroke="#689FF2"/>
<line x1="135" y1="149.5" x2="235" y2="149.5" stroke="#85BBB1"/>
<path d="M65.9113 225.24C67.2446 225.24 68.2579 225.4 68.9513 225.72C69.6446 226.013 70.2579 226.347 70.7913 226.72C71.1113 226.907 71.3646 227.053 71.5513 227.16C71.7646 227.24 71.9646 227.28 72.1513 227.28C72.4179 227.28 72.6046 227.133 72.7113 226.84C72.8446 226.547 72.9513 226.107 73.0313 225.52H73.9513C73.9246 225.973 73.8846 226.52 73.8313 227.16C73.8046 227.773 73.7779 228.6 73.7513 229.64C73.7513 230.653 73.7513 232 73.7513 233.68H72.8313C72.7513 232.4 72.4713 231.173 71.9913 230C71.5113 228.827 70.8046 227.867 69.8713 227.12C68.9646 226.373 67.7646 226 66.2713 226C64.8579 226 63.6846 226.427 62.7513 227.28C61.8446 228.133 61.3913 229.253 61.3913 230.64C61.3913 231.547 61.5646 232.333 61.9112 233C62.2846 233.667 62.7779 234.28 63.3913 234.84C64.0313 235.373 64.7513 235.893 65.5513 236.4C66.3513 236.88 67.2046 237.4 68.1113 237.96C69.4979 238.813 70.7246 239.667 71.7913 240.52C72.8846 241.347 73.7379 242.267 74.3513 243.28C74.9913 244.293 75.3113 245.52 75.3113 246.96C75.3113 248.667 74.9246 250.08 74.1513 251.2C73.3779 252.32 72.3513 253.16 71.0713 253.72C69.7913 254.28 68.3779 254.56 66.8313 254.56C65.4179 254.56 64.2979 254.4 63.4713 254.08C62.6446 253.76 61.9379 253.427 61.3513 253.08C61.0313 252.867 60.7646 252.72 60.5513 252.64C60.3379 252.56 60.1513 252.52 59.9913 252.52C59.7246 252.52 59.5246 252.667 59.3913 252.96C59.2846 253.253 59.1913 253.693 59.1113 254.28H58.1913C58.2446 253.72 58.2713 253.067 58.2713 252.32C58.2979 251.547 58.3113 250.547 58.3113 249.32C58.3379 248.093 58.3513 246.547 58.3513 244.68H59.2713C59.3513 245.88 59.5379 247.027 59.8313 248.12C60.1246 249.213 60.5513 250.187 61.1113 251.04C61.6713 251.893 62.3913 252.56 63.2713 253.04C64.1779 253.52 65.2713 253.76 66.5513 253.76C67.4313 253.76 68.2579 253.587 69.0313 253.24C69.8313 252.867 70.4846 252.293 70.9913 251.52C71.4979 250.72 71.7513 249.693 71.7513 248.44C71.7513 247.64 71.6046 246.907 71.3113 246.24C71.0179 245.573 70.5913 244.96 70.0313 244.4C69.4713 243.84 68.8046 243.293 68.0313 242.76C67.2846 242.227 66.4446 241.68 65.5113 241.12C64.2579 240.347 63.0846 239.56 61.9913 238.76C60.8979 237.96 60.0179 237.04 59.3513 236C58.7113 234.933 58.3913 233.653 58.3913 232.16C58.3913 230.587 58.7379 229.293 59.4313 228.28C60.1513 227.24 61.0846 226.48 62.2313 226C63.3779 225.493 64.6046 225.24 65.9113 225.24ZM65.3113 220.4V259.28H64.5113V220.4H65.3113ZM68.6713 220.4V259.28H67.8713V220.4H68.6713Z" fill="white"/>
<path d="M102.481 218.028C104.385 218.028 106.062 218.345 107.513 218.98C109.009 219.569 110.165 220.453 110.981 221.632C111.842 222.765 112.273 224.148 112.273 225.78C112.273 227.548 111.774 229.18 110.777 230.676C109.825 232.127 108.578 233.396 107.037 234.484C105.496 235.527 103.864 236.365 102.141 237C104.272 237.045 106.289 237.453 108.193 238.224C110.097 238.949 111.661 240.06 112.885 241.556C114.109 243.052 114.721 244.979 114.721 247.336C114.721 249.421 114.222 251.348 113.225 253.116C112.273 254.839 110.936 256.38 109.213 257.74C107.536 259.145 105.609 260.324 103.433 261.276C101.257 262.273 98.9676 263.021 96.5649 263.52C94.2076 264.019 91.8729 264.268 89.5609 264.268V263.044C91.8729 262.999 94.1396 262.613 96.3609 261.888C98.5823 261.208 100.577 260.211 102.345 258.896C104.158 257.581 105.586 255.949 106.629 254C107.717 252.051 108.261 249.829 108.261 247.336C108.261 244.661 107.604 242.463 106.289 240.74C105.02 238.972 103.274 237.997 101.053 237.816C100.373 238.088 99.7609 238.337 99.2169 238.564C98.7183 238.745 98.2649 238.836 97.8569 238.836C97.4943 238.836 97.2223 238.768 97.0409 238.632C96.8596 238.451 96.7689 238.224 96.7689 237.952C96.7689 237.544 96.9503 237.227 97.3129 237C97.6756 236.773 98.0836 236.66 98.5369 236.66C98.8996 236.66 99.2623 236.705 99.6249 236.796C100.033 236.841 100.464 236.887 100.917 236.932C102.776 235.527 104.113 233.985 104.929 232.308C105.745 230.585 106.153 228.863 106.153 227.14C106.153 225.009 105.609 223.468 104.521 222.516C103.478 221.519 102.05 221.02 100.237 221.02C98.3783 221.02 96.6556 221.519 95.0689 222.516C93.5276 223.513 92.2356 225.032 91.1929 227.072L90.0369 226.528C90.7169 225.032 91.6009 223.649 92.6889 222.38C93.7769 221.065 95.1143 220.023 96.7009 219.252C98.3329 218.436 100.26 218.028 102.481 218.028ZM126.293 246.248C127.471 246.248 128.491 246.679 129.353 247.54C130.214 248.401 130.645 249.421 130.645 250.6C130.645 251.779 130.214 252.799 129.353 253.66C128.491 254.521 127.471 254.952 126.293 254.952C125.114 254.952 124.094 254.521 123.233 253.66C122.371 252.799 121.941 251.779 121.941 250.6C121.941 249.421 122.371 248.401 123.233 247.54C124.094 246.679 125.114 246.248 126.293 246.248ZM161.649 204.836L161.921 206.196C160.425 206.695 158.884 207.329 157.297 208.1C155.756 208.871 154.26 209.936 152.809 211.296C151.359 212.656 150.067 214.401 148.933 216.532C147.8 218.617 146.893 221.224 146.213 224.352C145.533 227.435 145.193 231.152 145.193 235.504C145.193 240.264 145.601 243.959 146.417 246.588C147.233 249.217 148.253 251.053 149.477 252.096C150.701 253.093 151.925 253.592 153.149 253.592C154.509 253.592 155.756 253.139 156.889 252.232C158.068 251.28 159.02 249.761 159.745 247.676C160.471 245.591 160.833 242.871 160.833 239.516C160.833 236.252 160.493 233.645 159.813 231.696C159.179 229.747 158.295 228.341 157.161 227.48C156.073 226.619 154.849 226.188 153.489 226.188C152.492 226.188 151.404 226.415 150.225 226.868C149.047 227.321 147.959 228.092 146.961 229.18C145.964 230.223 145.239 231.719 144.785 233.668L144.105 234.076C144.423 231.537 145.216 229.565 146.485 228.16C147.755 226.709 149.183 225.689 150.769 225.1C152.401 224.511 153.875 224.216 155.189 224.216C157.32 224.216 159.315 224.805 161.173 225.984C163.032 227.117 164.528 228.795 165.661 231.016C166.84 233.192 167.429 235.867 167.429 239.04C167.429 242.44 166.749 245.341 165.389 247.744C164.029 250.101 162.216 251.892 159.949 253.116C157.683 254.34 155.189 254.952 152.469 254.952C148.163 254.952 144.763 253.275 142.269 249.92C139.821 246.52 138.597 241.76 138.597 235.64C138.597 231.515 139.096 227.865 140.093 224.692C141.091 221.519 142.405 218.776 144.037 216.464C145.715 214.107 147.551 212.135 149.545 210.548C151.585 208.961 153.648 207.715 155.733 206.808C157.864 205.856 159.836 205.199 161.649 204.836ZM192.698 215.58C192.698 218.164 192.721 220.181 192.766 221.632C192.812 223.083 192.88 224.375 192.97 225.508C192.608 225.417 191.905 225.349 190.862 225.304C189.865 225.259 188.709 225.236 187.394 225.236C186.08 225.191 184.788 225.168 183.518 225.168H176.31L175.494 238.292C176.492 237.793 177.602 237.34 178.826 236.932C180.05 236.479 181.592 236.252 183.45 236.252C186.216 236.252 188.482 236.705 190.25 237.612C192.018 238.519 193.333 239.765 194.194 241.352C195.056 242.939 195.486 244.729 195.486 246.724C195.486 249.353 194.829 251.733 193.514 253.864C192.2 255.995 190.432 257.808 188.21 259.304C186.034 260.845 183.632 262.024 181.002 262.84C178.373 263.656 175.721 264.064 173.046 264.064V262.84C175.041 262.84 176.99 262.5 178.894 261.82C180.798 261.185 182.498 260.211 183.994 258.896C185.536 257.627 186.76 256.04 187.666 254.136C188.573 252.232 189.026 249.988 189.026 247.404C189.026 244.548 188.278 242.327 186.782 240.74C185.332 239.108 183.224 238.292 180.458 238.292C179.28 238.292 178.282 238.405 177.466 238.632C176.696 238.813 175.834 239.085 174.882 239.448L174.202 239.04L175.494 218.776C175.993 218.867 176.56 218.935 177.194 218.98C177.874 219.025 178.532 219.048 179.166 219.048H186.85C188.709 219.048 189.888 218.799 190.386 218.3C190.885 217.756 191.225 216.849 191.406 215.58H192.698ZM238.625 218.028C240.212 218.028 241.594 218.255 242.773 218.708C243.952 219.161 244.926 219.796 245.697 220.612C246.558 221.519 247.148 222.697 247.465 224.148C247.782 225.599 247.941 227.389 247.941 229.52V247.676C247.941 249.58 248.326 250.872 249.097 251.552C249.913 252.232 251.25 252.572 253.109 252.572V254C252.338 253.955 251.16 253.909 249.573 253.864C247.986 253.773 246.445 253.728 244.949 253.728C243.453 253.728 241.98 253.773 240.529 253.864C239.124 253.909 238.058 253.955 237.333 254V252.572C238.965 252.572 240.121 252.232 240.801 251.552C241.481 250.872 241.821 249.58 241.821 247.676V228.024C241.821 226.619 241.73 225.327 241.549 224.148C241.368 222.969 240.914 222.017 240.189 221.292C239.464 220.567 238.285 220.204 236.653 220.204C234.885 220.204 233.298 220.748 231.893 221.836C230.533 222.924 229.445 224.42 228.629 226.324C227.858 228.183 227.473 230.268 227.473 232.58V247.676C227.473 249.58 227.813 250.872 228.493 251.552C229.173 252.232 230.329 252.572 231.961 252.572V254C231.236 253.955 230.148 253.909 228.697 253.864C227.292 253.773 225.841 253.728 224.345 253.728C222.849 253.728 221.308 253.773 219.721 253.864C218.134 253.909 216.956 253.955 216.185 254V252.572C218.044 252.572 219.358 252.232 220.129 251.552C220.945 250.872 221.353 249.58 221.353 247.676V226.392C221.353 224.352 220.99 222.856 220.265 221.904C219.54 220.907 218.18 220.408 216.185 220.408V218.98C217.636 219.116 219.041 219.184 220.401 219.184C221.716 219.184 222.962 219.116 224.141 218.98C225.365 218.799 226.476 218.549 227.473 218.232V226.256C228.652 223.309 230.261 221.201 232.301 219.932C234.341 218.663 236.449 218.028 238.625 218.028ZM259.093 218.028C260.68 218.028 262.062 218.255 263.241 218.708C264.42 219.161 265.394 219.796 266.165 220.612C267.026 221.519 267.616 222.697 267.933 224.148C268.25 225.599 268.409 227.389 268.409 229.52V247.676C268.409 249.58 268.794 250.872 269.565 251.552C270.381 252.232 271.718 252.572 273.577 252.572V254C272.806 253.955 271.628 253.909 270.041 253.864C268.454 253.773 266.913 253.728 265.417 253.728C263.921 253.728 262.448 253.773 260.997 253.864C259.592 253.909 258.526 253.955 257.801 254V252.572C259.433 252.572 260.589 252.232 261.269 251.552C261.949 250.872 262.289 249.58 262.289 247.676V228.024C262.289 226.619 262.198 225.327 262.017 224.148C261.836 222.969 261.382 222.017 260.657 221.292C259.932 220.567 258.753 220.204 257.121 220.204C255.353 220.204 253.766 220.748 252.361 221.836C251.001 222.924 249.913 224.397 249.097 226.256C248.326 228.115 247.941 230.2 247.941 232.512L247.737 226.188C248.961 223.06 250.616 220.929 252.701 219.796C254.786 218.617 256.917 218.028 259.093 218.028ZM284.3 201.98C285.479 201.98 286.499 202.411 287.36 203.272C288.222 204.133 288.652 205.153 288.652 206.332C288.652 207.511 288.222 208.531 287.36 209.392C286.499 210.253 285.479 210.684 284.3 210.684C283.122 210.684 282.102 210.253 281.24 209.392C280.379 208.531 279.948 207.511 279.948 206.332C279.948 205.153 280.379 204.133 281.24 203.272C282.102 202.411 283.122 201.98 284.3 201.98ZM287.836 218.232V247.676C287.836 249.58 288.222 250.872 288.992 251.552C289.808 252.232 291.146 252.572 293.004 252.572V254C292.234 253.955 291.055 253.909 289.468 253.864C287.927 253.773 286.363 253.728 284.776 253.728C283.235 253.728 281.671 253.773 280.084 253.864C278.498 253.909 277.319 253.955 276.548 254V252.572C278.407 252.572 279.722 252.232 280.492 251.552C281.308 250.872 281.716 249.58 281.716 247.676V226.392C281.716 224.352 281.354 222.856 280.628 221.904C279.903 220.907 278.543 220.408 276.548 220.408V218.98C277.999 219.116 279.404 219.184 280.764 219.184C282.079 219.184 283.326 219.116 284.504 218.98C285.728 218.799 286.839 218.549 287.836 218.232ZM307.282 200.688V247.676C307.282 249.58 307.667 250.872 308.438 251.552C309.254 252.232 310.591 252.572 312.45 252.572V254C311.679 253.955 310.501 253.909 308.914 253.864C307.373 253.773 305.809 253.728 304.222 253.728C302.681 253.728 301.117 253.773 299.53 253.864C297.943 253.909 296.765 253.955 295.994 254V252.572C297.853 252.572 299.167 252.232 299.938 251.552C300.754 250.872 301.162 249.58 301.162 247.676V208.848C301.162 206.808 300.799 205.312 300.074 204.36C299.349 203.363 297.989 202.864 295.994 202.864V201.436C297.445 201.572 298.85 201.64 300.21 201.64C301.525 201.64 302.771 201.572 303.95 201.436C305.174 201.255 306.285 201.005 307.282 200.688Z" fill="white"/>
<path opacity="0.8" d="M112.1 287.628C112.1 288.612 111.953 289.497 111.659 290.283C111.365 291.069 110.951 291.738 110.417 292.29C109.883 292.842 109.241 293.265 108.491 293.559C107.747 293.853 106.925 294 106.025 294H101.372V281.265H106.025C106.925 281.265 107.747 281.412 108.491 281.706C109.241 282 109.883 282.423 110.417 282.975C110.951 283.527 111.365 284.196 111.659 284.982C111.953 285.768 112.1 286.65 112.1 287.628ZM111.146 287.628C111.146 286.74 111.023 285.948 110.777 285.252C110.531 284.556 110.183 283.968 109.733 283.488C109.283 283.008 108.743 282.642 108.113 282.39C107.483 282.138 106.787 282.012 106.025 282.012H102.299V293.253H106.025C106.787 293.253 107.483 293.127 108.113 292.875C108.743 292.623 109.283 292.257 109.733 291.777C110.183 291.297 110.531 290.709 110.777 290.013C111.023 289.317 111.146 288.522 111.146 287.628ZM120.784 288.618C120.784 288.138 120.715 287.709 120.577 287.331C120.445 286.947 120.256 286.623 120.01 286.359C119.764 286.095 119.47 285.894 119.128 285.756C118.792 285.612 118.42 285.54 118.012 285.54C117.55 285.54 117.136 285.612 116.77 285.756C116.404 285.9 116.086 286.107 115.816 286.377C115.552 286.647 115.339 286.971 115.177 287.349C115.015 287.727 114.907 288.15 114.853 288.618H120.784ZM114.808 289.167V289.338C114.808 290.01 114.886 290.601 115.042 291.111C115.198 291.621 115.42 292.05 115.708 292.398C115.996 292.74 116.344 292.998 116.752 293.172C117.16 293.346 117.616 293.433 118.12 293.433C118.57 293.433 118.96 293.385 119.29 293.289C119.62 293.187 119.896 293.076 120.118 292.956C120.346 292.83 120.526 292.719 120.658 292.623C120.79 292.521 120.886 292.47 120.946 292.47C121.024 292.47 121.084 292.5 121.126 292.56L121.36 292.848C121.216 293.028 121.024 293.196 120.784 293.352C120.55 293.508 120.286 293.643 119.992 293.757C119.704 293.865 119.392 293.952 119.056 294.018C118.726 294.084 118.393 294.117 118.057 294.117C117.445 294.117 116.887 294.012 116.383 293.802C115.879 293.586 115.447 293.274 115.087 292.866C114.727 292.458 114.448 291.96 114.25 291.372C114.058 290.778 113.962 290.1 113.962 289.338C113.962 288.696 114.052 288.105 114.232 287.565C114.418 287.019 114.682 286.551 115.024 286.161C115.372 285.765 115.795 285.456 116.293 285.234C116.797 285.012 117.367 284.901 118.003 284.901C118.507 284.901 118.975 284.988 119.407 285.162C119.839 285.336 120.214 285.591 120.532 285.927C120.85 286.257 121.099 286.665 121.279 287.151C121.465 287.637 121.558 288.195 121.558 288.825C121.558 288.957 121.54 289.047 121.504 289.095C121.468 289.143 121.408 289.167 121.324 289.167H114.808ZM124.753 292.047C124.927 292.305 125.107 292.524 125.293 292.704C125.485 292.878 125.686 293.022 125.896 293.136C126.106 293.244 126.328 293.322 126.562 293.37C126.802 293.418 127.054 293.442 127.318 293.442C127.846 293.442 128.308 293.346 128.704 293.154C129.1 292.962 129.43 292.692 129.694 292.344C129.964 291.99 130.165 291.57 130.297 291.084C130.435 290.592 130.504 290.052 130.504 289.464C130.504 288.132 130.258 287.154 129.766 286.53C129.274 285.9 128.569 285.585 127.651 285.585C127.057 285.585 126.52 285.738 126.04 286.044C125.56 286.35 125.131 286.776 124.753 287.322V292.047ZM124.717 286.656C125.113 286.116 125.575 285.687 126.103 285.369C126.637 285.051 127.234 284.892 127.894 284.892C128.992 284.892 129.847 285.273 130.459 286.035C131.077 286.797 131.386 287.94 131.386 289.464C131.386 290.118 131.299 290.73 131.125 291.3C130.957 291.864 130.705 292.356 130.369 292.776C130.039 293.19 129.631 293.517 129.145 293.757C128.665 293.997 128.11 294.117 127.48 294.117C126.874 294.117 126.349 294.006 125.905 293.784C125.461 293.562 125.077 293.235 124.753 292.803V297.168H123.889V285.045H124.366C124.516 285.045 124.603 285.12 124.627 285.27L124.717 286.656ZM137.367 284.901C138.009 284.901 138.582 285.012 139.086 285.234C139.596 285.45 140.025 285.759 140.373 286.161C140.721 286.563 140.985 287.049 141.165 287.619C141.351 288.183 141.444 288.816 141.444 289.518C141.444 290.22 141.351 290.853 141.165 291.417C140.985 291.981 140.721 292.464 140.373 292.866C140.025 293.268 139.596 293.577 139.086 293.793C138.582 294.009 138.009 294.117 137.367 294.117C136.725 294.117 136.149 294.009 135.639 293.793C135.135 293.577 134.706 293.268 134.352 292.866C134.004 292.464 133.737 291.981 133.551 291.417C133.371 290.853 133.281 290.22 133.281 289.518C133.281 288.816 133.371 288.183 133.551 287.619C133.737 287.049 134.004 286.563 134.352 286.161C134.706 285.759 135.135 285.45 135.639 285.234C136.149 285.012 136.725 284.901 137.367 284.901ZM137.367 293.442C137.901 293.442 138.366 293.352 138.762 293.172C139.164 292.986 139.497 292.722 139.761 292.38C140.031 292.038 140.232 291.627 140.364 291.147C140.496 290.661 140.562 290.118 140.562 289.518C140.562 288.924 140.496 288.384 140.364 287.898C140.232 287.412 140.031 286.998 139.761 286.656C139.497 286.308 139.164 286.041 138.762 285.855C138.366 285.669 137.901 285.576 137.367 285.576C136.833 285.576 136.365 285.669 135.963 285.855C135.567 286.041 135.234 286.308 134.964 286.656C134.7 286.998 134.499 287.412 134.361 287.898C134.229 288.384 134.163 288.924 134.163 289.518C134.163 290.118 134.229 290.661 134.361 291.147C134.499 291.627 134.7 292.038 134.964 292.38C135.234 292.722 135.567 292.986 135.963 293.172C136.365 293.352 136.833 293.442 137.367 293.442ZM148.781 286.152C148.733 286.236 148.664 286.278 148.574 286.278C148.508 286.278 148.424 286.242 148.322 286.17C148.22 286.092 148.082 286.008 147.908 285.918C147.74 285.822 147.53 285.738 147.278 285.666C147.026 285.588 146.72 285.549 146.36 285.549C146.036 285.549 145.739 285.597 145.469 285.693C145.205 285.783 144.977 285.906 144.785 286.062C144.599 286.218 144.455 286.401 144.353 286.611C144.251 286.815 144.2 287.031 144.2 287.259C144.2 287.541 144.272 287.775 144.416 287.961C144.56 288.147 144.746 288.306 144.974 288.438C145.208 288.57 145.475 288.684 145.775 288.78C146.075 288.876 146.378 288.972 146.684 289.068C146.996 289.164 147.302 289.272 147.602 289.392C147.902 289.506 148.166 289.65 148.394 289.824C148.628 289.998 148.817 290.211 148.961 290.463C149.105 290.715 149.177 291.021 149.177 291.381C149.177 291.771 149.108 292.134 148.97 292.47C148.832 292.806 148.628 293.097 148.358 293.343C148.094 293.589 147.767 293.784 147.377 293.928C146.987 294.072 146.54 294.144 146.036 294.144C145.406 294.144 144.863 294.045 144.407 293.847C143.951 293.643 143.543 293.379 143.183 293.055L143.381 292.749C143.411 292.701 143.444 292.665 143.48 292.641C143.522 292.617 143.576 292.605 143.642 292.605C143.72 292.605 143.813 292.653 143.921 292.749C144.035 292.845 144.185 292.95 144.371 293.064C144.557 293.172 144.785 293.274 145.055 293.37C145.331 293.466 145.67 293.514 146.072 293.514C146.45 293.514 146.783 293.463 147.071 293.361C147.359 293.253 147.599 293.109 147.791 292.929C147.983 292.749 148.127 292.539 148.223 292.299C148.325 292.053 148.376 291.795 148.376 291.525C148.376 291.225 148.304 290.976 148.16 290.778C148.016 290.58 147.827 290.412 147.593 290.274C147.359 290.136 147.092 290.019 146.792 289.923C146.498 289.827 146.195 289.731 145.883 289.635C145.571 289.539 145.265 289.434 144.965 289.32C144.671 289.206 144.407 289.062 144.173 288.888C143.939 288.714 143.75 288.504 143.606 288.258C143.462 288.006 143.39 287.694 143.39 287.322C143.39 287.004 143.459 286.698 143.597 286.404C143.735 286.11 143.93 285.852 144.182 285.63C144.44 285.408 144.752 285.231 145.118 285.099C145.484 284.967 145.895 284.901 146.351 284.901C146.897 284.901 147.38 284.979 147.8 285.135C148.226 285.291 148.613 285.531 148.961 285.855L148.781 286.152ZM152.458 285.045V294H151.603V285.045H152.458ZM152.827 281.958C152.827 282.066 152.803 282.168 152.755 282.264C152.713 282.354 152.656 282.435 152.584 282.507C152.512 282.579 152.428 282.636 152.332 282.678C152.236 282.72 152.134 282.741 152.026 282.741C151.918 282.741 151.816 282.72 151.72 282.678C151.624 282.636 151.54 282.579 151.468 282.507C151.396 282.435 151.339 282.354 151.297 282.264C151.255 282.168 151.234 282.066 151.234 281.958C151.234 281.85 151.255 281.748 151.297 281.652C151.339 281.55 151.396 281.463 151.468 281.391C151.54 281.319 151.624 281.262 151.72 281.22C151.816 281.178 151.918 281.157 152.026 281.157C152.134 281.157 152.236 281.178 152.332 281.22C152.428 281.262 152.512 281.319 152.584 281.391C152.656 281.463 152.713 281.55 152.755 281.652C152.803 281.748 152.827 281.85 152.827 281.958ZM157.96 294.144C157.354 294.144 156.88 293.976 156.538 293.64C156.202 293.304 156.034 292.785 156.034 292.083V285.963H154.747C154.681 285.963 154.627 285.945 154.585 285.909C154.543 285.873 154.522 285.822 154.522 285.756V285.423L156.052 285.315L156.268 282.111C156.28 282.057 156.304 282.009 156.34 281.967C156.376 281.925 156.427 281.904 156.493 281.904H156.898V285.324H159.724V285.963H156.898V292.038C156.898 292.284 156.928 292.497 156.988 292.677C157.054 292.851 157.141 292.995 157.249 293.109C157.363 293.223 157.495 293.307 157.645 293.361C157.795 293.415 157.957 293.442 158.131 293.442C158.347 293.442 158.533 293.412 158.689 293.352C158.845 293.286 158.98 293.217 159.094 293.145C159.208 293.067 159.301 292.998 159.373 292.938C159.445 292.872 159.502 292.839 159.544 292.839C159.592 292.839 159.64 292.869 159.688 292.929L159.922 293.307C159.694 293.559 159.403 293.763 159.049 293.919C158.701 294.069 158.338 294.144 157.96 294.144ZM167.929 288.618C167.929 288.138 167.86 287.709 167.722 287.331C167.59 286.947 167.401 286.623 167.155 286.359C166.909 286.095 166.615 285.894 166.273 285.756C165.937 285.612 165.565 285.54 165.157 285.54C164.695 285.54 164.281 285.612 163.915 285.756C163.549 285.9 163.231 286.107 162.961 286.377C162.697 286.647 162.484 286.971 162.322 287.349C162.16 287.727 162.052 288.15 161.998 288.618H167.929ZM161.953 289.167V289.338C161.953 290.01 162.031 290.601 162.187 291.111C162.343 291.621 162.565 292.05 162.853 292.398C163.141 292.74 163.489 292.998 163.897 293.172C164.305 293.346 164.761 293.433 165.265 293.433C165.715 293.433 166.105 293.385 166.435 293.289C166.765 293.187 167.041 293.076 167.263 292.956C167.491 292.83 167.671 292.719 167.803 292.623C167.935 292.521 168.031 292.47 168.091 292.47C168.169 292.47 168.229 292.5 168.271 292.56L168.505 292.848C168.361 293.028 168.169 293.196 167.929 293.352C167.695 293.508 167.431 293.643 167.137 293.757C166.849 293.865 166.537 293.952 166.201 294.018C165.871 294.084 165.538 294.117 165.202 294.117C164.59 294.117 164.032 294.012 163.528 293.802C163.024 293.586 162.592 293.274 162.232 292.866C161.872 292.458 161.593 291.96 161.395 291.372C161.203 290.778 161.107 290.1 161.107 289.338C161.107 288.696 161.197 288.105 161.377 287.565C161.563 287.019 161.827 286.551 162.169 286.161C162.517 285.765 162.94 285.456 163.438 285.234C163.942 285.012 164.512 284.901 165.148 284.901C165.652 284.901 166.12 284.988 166.552 285.162C166.984 285.336 167.359 285.591 167.677 285.927C167.995 286.257 168.244 286.665 168.424 287.151C168.61 287.637 168.703 288.195 168.703 288.825C168.703 288.957 168.685 289.047 168.649 289.095C168.613 289.143 168.553 289.167 168.469 289.167H161.953ZM177.145 286.971C176.803 286.455 176.422 286.092 176.002 285.882C175.588 285.672 175.114 285.567 174.58 285.567C174.052 285.567 173.59 285.663 173.194 285.855C172.798 286.047 172.465 286.32 172.195 286.674C171.931 287.022 171.73 287.442 171.592 287.934C171.46 288.42 171.394 288.957 171.394 289.545C171.394 290.877 171.637 291.858 172.123 292.488C172.615 293.112 173.323 293.424 174.247 293.424C174.835 293.424 175.372 293.271 175.858 292.965C176.344 292.659 176.773 292.23 177.145 291.678V286.971ZM178 280.905V294H177.532C177.376 294 177.286 293.922 177.262 293.766L177.172 292.353C176.776 292.893 176.314 293.322 175.786 293.64C175.258 293.958 174.664 294.117 174.004 294.117C172.9 294.117 172.042 293.736 171.43 292.974C170.818 292.212 170.512 291.069 170.512 289.545C170.512 288.891 170.596 288.282 170.764 287.718C170.938 287.148 171.19 286.656 171.52 286.242C171.85 285.822 172.255 285.492 172.735 285.252C173.221 285.012 173.779 284.892 174.409 284.892C175.015 284.892 175.54 285.003 175.984 285.225C176.428 285.447 176.815 285.777 177.145 286.215V280.905H178ZM188.282 294.144C187.676 294.144 187.202 293.976 186.86 293.64C186.524 293.304 186.356 292.785 186.356 292.083V285.963H185.069C185.003 285.963 184.949 285.945 184.907 285.909C184.865 285.873 184.844 285.822 184.844 285.756V285.423L186.374 285.315L186.59 282.111C186.602 282.057 186.626 282.009 186.662 281.967C186.698 281.925 186.749 281.904 186.815 281.904H187.22V285.324H190.046V285.963H187.22V292.038C187.22 292.284 187.25 292.497 187.31 292.677C187.376 292.851 187.463 292.995 187.571 293.109C187.685 293.223 187.817 293.307 187.967 293.361C188.117 293.415 188.279 293.442 188.453 293.442C188.669 293.442 188.855 293.412 189.011 293.352C189.167 293.286 189.302 293.217 189.416 293.145C189.53 293.067 189.623 292.998 189.695 292.938C189.767 292.872 189.824 292.839 189.866 292.839C189.914 292.839 189.962 292.869 190.01 292.929L190.244 293.307C190.016 293.559 189.725 293.763 189.371 293.919C189.023 294.069 188.66 294.144 188.282 294.144ZM195.515 284.901C196.157 284.901 196.73 285.012 197.234 285.234C197.744 285.45 198.173 285.759 198.521 286.161C198.869 286.563 199.133 287.049 199.313 287.619C199.499 288.183 199.592 288.816 199.592 289.518C199.592 290.22 199.499 290.853 199.313 291.417C199.133 291.981 198.869 292.464 198.521 292.866C198.173 293.268 197.744 293.577 197.234 293.793C196.73 294.009 196.157 294.117 195.515 294.117C194.873 294.117 194.297 294.009 193.787 293.793C193.283 293.577 192.854 293.268 192.5 292.866C192.152 292.464 191.885 291.981 191.699 291.417C191.519 290.853 191.429 290.22 191.429 289.518C191.429 288.816 191.519 288.183 191.699 287.619C191.885 287.049 192.152 286.563 192.5 286.161C192.854 285.759 193.283 285.45 193.787 285.234C194.297 285.012 194.873 284.901 195.515 284.901ZM195.515 293.442C196.049 293.442 196.514 293.352 196.91 293.172C197.312 292.986 197.645 292.722 197.909 292.38C198.179 292.038 198.38 291.627 198.512 291.147C198.644 290.661 198.71 290.118 198.71 289.518C198.71 288.924 198.644 288.384 198.512 287.898C198.38 287.412 198.179 286.998 197.909 286.656C197.645 286.308 197.312 286.041 196.91 285.855C196.514 285.669 196.049 285.576 195.515 285.576C194.981 285.576 194.513 285.669 194.111 285.855C193.715 286.041 193.382 286.308 193.112 286.656C192.848 286.998 192.647 287.412 192.509 287.898C192.377 288.384 192.311 288.924 192.311 289.518C192.311 290.118 192.377 290.661 192.509 291.147C192.647 291.627 192.848 292.038 193.112 292.38C193.382 292.722 193.715 292.986 194.111 293.172C194.513 293.352 194.981 293.442 195.515 293.442ZM207.757 292.047C207.931 292.305 208.111 292.524 208.297 292.704C208.489 292.878 208.69 293.022 208.9 293.136C209.11 293.244 209.332 293.322 209.566 293.37C209.806 293.418 210.058 293.442 210.322 293.442C210.85 293.442 211.312 293.346 211.708 293.154C212.104 292.962 212.434 292.692 212.698 292.344C212.968 291.99 213.169 291.57 213.301 291.084C213.439 290.592 213.508 290.052 213.508 289.464C213.508 288.132 213.262 287.154 212.77 286.53C212.278 285.9 211.573 285.585 210.655 285.585C210.061 285.585 209.524 285.738 209.044 286.044C208.564 286.35 208.135 286.776 207.757 287.322V292.047ZM207.721 286.656C208.117 286.116 208.579 285.687 209.107 285.369C209.641 285.051 210.238 284.892 210.898 284.892C211.996 284.892 212.851 285.273 213.463 286.035C214.081 286.797 214.39 287.94 214.39 289.464C214.39 290.118 214.303 290.73 214.129 291.3C213.961 291.864 213.709 292.356 213.373 292.776C213.043 293.19 212.635 293.517 212.149 293.757C211.669 293.997 211.114 294.117 210.484 294.117C209.878 294.117 209.353 294.006 208.909 293.784C208.465 293.562 208.081 293.235 207.757 292.803V297.168H206.893V285.045H207.37C207.52 285.045 207.607 285.12 207.631 285.27L207.721 286.656ZM217.77 280.905V294H216.906V280.905H217.77ZM225.81 289.671C224.958 289.701 224.223 289.77 223.605 289.878C222.993 289.98 222.486 290.121 222.084 290.301C221.688 290.481 221.394 290.697 221.202 290.949C221.01 291.195 220.914 291.477 220.914 291.795C220.914 292.095 220.962 292.356 221.058 292.578C221.16 292.794 221.292 292.974 221.454 293.118C221.622 293.256 221.814 293.358 222.03 293.424C222.246 293.49 222.471 293.523 222.705 293.523C223.053 293.523 223.371 293.487 223.659 293.415C223.953 293.337 224.223 293.232 224.469 293.1C224.721 292.962 224.955 292.8 225.171 292.614C225.387 292.428 225.6 292.227 225.81 292.011V289.671ZM220.545 286.314C221.013 285.846 221.505 285.492 222.021 285.252C222.537 285.012 223.122 284.892 223.776 284.892C224.256 284.892 224.676 284.97 225.036 285.126C225.396 285.276 225.693 285.495 225.927 285.783C226.167 286.065 226.347 286.41 226.467 286.818C226.587 287.22 226.647 287.67 226.647 288.168V294H226.305C226.125 294 226.014 293.916 225.972 293.748L225.846 292.596C225.6 292.836 225.354 293.052 225.108 293.244C224.868 293.436 224.616 293.598 224.352 293.73C224.088 293.862 223.803 293.964 223.497 294.036C223.191 294.108 222.855 294.144 222.489 294.144C222.183 294.144 221.886 294.099 221.598 294.009C221.31 293.919 221.052 293.781 220.824 293.595C220.602 293.409 220.422 293.172 220.284 292.884C220.152 292.59 220.086 292.239 220.086 291.831C220.086 291.453 220.194 291.102 220.41 290.778C220.626 290.454 220.965 290.172 221.427 289.932C221.889 289.692 222.48 289.5 223.2 289.356C223.926 289.212 224.796 289.128 225.81 289.104V288.168C225.81 287.34 225.63 286.704 225.27 286.26C224.916 285.81 224.388 285.585 223.686 285.585C223.254 285.585 222.885 285.645 222.579 285.765C222.279 285.885 222.024 286.017 221.814 286.161C221.604 286.305 221.433 286.437 221.301 286.557C221.169 286.677 221.058 286.737 220.968 286.737C220.902 286.737 220.848 286.722 220.806 286.692C220.764 286.662 220.728 286.623 220.698 286.575L220.545 286.314ZM235.846 294V285.963H230.797V292.038C230.797 292.284 230.827 292.497 230.887 292.677C230.953 292.851 231.04 292.995 231.148 293.109C231.262 293.223 231.394 293.307 231.544 293.361C231.694 293.415 231.856 293.442 232.03 293.442C232.246 293.442 232.432 293.412 232.588 293.352C232.744 293.286 232.879 293.217 232.993 293.145C233.107 293.067 233.2 292.998 233.272 292.938C233.344 292.872 233.401 292.839 233.443 292.839C233.491 292.839 233.539 292.869 233.587 292.929L233.821 293.307C233.593 293.559 233.302 293.763 232.948 293.919C232.6 294.069 232.237 294.144 231.859 294.144C231.253 294.144 230.779 293.976 230.437 293.64C230.101 293.304 229.933 292.785 229.933 292.083V285.963H228.646C228.58 285.963 228.526 285.945 228.484 285.909C228.442 285.873 228.421 285.822 228.421 285.756V285.423L229.951 285.315L230.167 282.111C230.179 282.057 230.203 282.009 230.239 281.967C230.275 281.925 230.326 281.904 230.392 281.904H230.797V285.324H235.846V284.19C235.846 283.68 235.912 283.233 236.044 282.849C236.176 282.459 236.362 282.135 236.602 281.877C236.842 281.619 237.13 281.427 237.466 281.301C237.802 281.169 238.174 281.103 238.582 281.103C238.768 281.103 238.954 281.121 239.14 281.157C239.332 281.187 239.5 281.232 239.644 281.292L239.617 281.706C239.611 281.76 239.587 281.796 239.545 281.814C239.509 281.826 239.455 281.832 239.383 281.832C239.311 281.826 239.218 281.817 239.104 281.805C238.99 281.787 238.858 281.778 238.708 281.778C238.414 281.778 238.141 281.823 237.889 281.913C237.643 281.997 237.43 282.135 237.25 282.327C237.07 282.519 236.929 282.771 236.827 283.083C236.731 283.389 236.683 283.767 236.683 284.217V285.324H239.581V285.963H236.701V294H235.846ZM244.646 284.901C245.288 284.901 245.861 285.012 246.365 285.234C246.875 285.45 247.304 285.759 247.652 286.161C248 286.563 248.264 287.049 248.444 287.619C248.63 288.183 248.723 288.816 248.723 289.518C248.723 290.22 248.63 290.853 248.444 291.417C248.264 291.981 248 292.464 247.652 292.866C247.304 293.268 246.875 293.577 246.365 293.793C245.861 294.009 245.288 294.117 244.646 294.117C244.004 294.117 243.428 294.009 242.918 293.793C242.414 293.577 241.985 293.268 241.631 292.866C241.283 292.464 241.016 291.981 240.83 291.417C240.65 290.853 240.56 290.22 240.56 289.518C240.56 288.816 240.65 288.183 240.83 287.619C241.016 287.049 241.283 286.563 241.631 286.161C241.985 285.759 242.414 285.45 242.918 285.234C243.428 285.012 244.004 284.901 244.646 284.901ZM244.646 293.442C245.18 293.442 245.645 293.352 246.041 293.172C246.443 292.986 246.776 292.722 247.04 292.38C247.31 292.038 247.511 291.627 247.643 291.147C247.775 290.661 247.841 290.118 247.841 289.518C247.841 288.924 247.775 288.384 247.643 287.898C247.511 287.412 247.31 286.998 247.04 286.656C246.776 286.308 246.443 286.041 246.041 285.855C245.645 285.669 245.18 285.576 244.646 285.576C244.112 285.576 243.644 285.669 243.242 285.855C242.846 286.041 242.513 286.308 242.243 286.656C241.979 286.998 241.778 287.412 241.64 287.898C241.508 288.384 241.442 288.924 241.442 289.518C241.442 290.118 241.508 290.661 241.64 291.147C241.778 291.627 241.979 292.038 242.243 292.38C242.513 292.722 242.846 292.986 243.242 293.172C243.644 293.352 244.112 293.442 244.646 293.442ZM251.956 287.205C252.094 286.839 252.25 286.515 252.424 286.233C252.604 285.945 252.808 285.702 253.036 285.504C253.27 285.306 253.528 285.156 253.81 285.054C254.098 284.946 254.416 284.892 254.764 284.892C254.95 284.892 255.133 284.91 255.313 284.946C255.493 284.976 255.652 285.033 255.79 285.117L255.718 285.711C255.688 285.807 255.631 285.855 255.547 285.855C255.475 285.855 255.364 285.834 255.214 285.792C255.07 285.75 254.878 285.729 254.638 285.729C254.29 285.729 253.981 285.783 253.711 285.891C253.447 285.993 253.207 286.149 252.991 286.359C252.781 286.569 252.595 286.83 252.433 287.142C252.277 287.448 252.133 287.802 252.001 288.204V294H251.137V285.045H251.596C251.698 285.045 251.77 285.066 251.812 285.108C251.854 285.15 251.881 285.222 251.893 285.324L251.956 287.205ZM257.5 294V285.045H257.977C258.127 285.045 258.214 285.12 258.238 285.27L258.319 286.566C258.667 286.068 259.066 285.666 259.516 285.36C259.966 285.054 260.473 284.901 261.037 284.901C261.691 284.901 262.213 285.09 262.603 285.468C262.999 285.846 263.266 286.371 263.404 287.043C263.512 286.677 263.662 286.359 263.854 286.089C264.052 285.819 264.277 285.597 264.529 285.423C264.781 285.243 265.054 285.111 265.348 285.027C265.648 284.943 265.954 284.901 266.266 284.901C266.71 284.901 267.109 284.976 267.463 285.126C267.817 285.27 268.117 285.486 268.363 285.774C268.609 286.062 268.798 286.416 268.93 286.836C269.062 287.256 269.128 287.736 269.128 288.276V294H268.273V288.276C268.273 287.4 268.084 286.734 267.706 286.278C267.328 285.816 266.788 285.585 266.086 285.585C265.774 285.585 265.474 285.642 265.186 285.756C264.904 285.87 264.652 286.041 264.43 286.269C264.214 286.491 264.04 286.77 263.908 287.106C263.782 287.442 263.719 287.832 263.719 288.276V294H262.855V288.276C262.855 287.406 262.681 286.74 262.333 286.278C261.991 285.816 261.487 285.585 260.821 285.585C260.335 285.585 259.885 285.729 259.471 286.017C259.057 286.305 258.688 286.704 258.364 287.214V294H257.5Z" fill="white"/>
<rect x="135" y="340" width="100" height="0" stroke="#689FF2"/>
<line x1="135" y1="339.5" x2="235" y2="339.5" stroke="#85BBB1"/>
<path d="M173.35 408.232V436.996C173.35 439.172 173.849 440.645 174.846 441.416C175.844 442.187 177.521 442.572 179.878 442.572V444C178.972 443.955 177.634 443.909 175.866 443.864C174.144 443.773 172.353 443.728 170.494 443.728C168.409 443.728 166.392 443.773 164.442 443.864C162.538 443.909 161.065 443.955 160.022 444V442.572C162.289 442.572 164.057 442.209 165.326 441.484C166.596 440.713 167.23 439.217 167.23 436.996V420.54C167.23 418.364 167.004 416.755 166.55 415.712C166.097 414.669 165.281 413.989 164.102 413.672C162.969 413.355 161.382 413.196 159.342 413.196V411.7C162.606 411.609 165.326 411.315 167.502 410.816C169.678 410.317 171.628 409.456 173.35 408.232ZM197.906 408.028C201.034 408.028 203.505 408.776 205.318 410.272C207.177 411.723 208.106 413.831 208.106 416.596C208.106 418.409 207.676 420.132 206.814 421.764C205.998 423.351 204.91 424.892 203.55 426.388C202.19 427.839 200.74 429.267 199.198 430.672C197.657 432.032 196.161 433.392 194.71 434.752C193.26 436.067 192.036 437.404 191.038 438.764H204.842C206.701 438.764 207.88 438.515 208.378 438.016C208.877 437.472 209.217 436.565 209.398 435.296H210.554C210.554 437.699 210.577 439.557 210.622 440.872C210.668 442.141 210.736 443.297 210.826 444.34C210.418 444.249 209.67 444.181 208.582 444.136C207.494 444.091 206.248 444.045 204.842 444C203.437 444 202.054 444 200.694 444H184.782V442.844C186.142 441.348 187.774 439.761 189.678 438.084C191.582 436.361 193.418 434.503 195.186 432.508C197 430.468 198.496 428.269 199.674 425.912C200.898 423.509 201.51 420.903 201.51 418.092C201.51 415.508 200.898 413.649 199.674 412.516C198.496 411.337 196.841 410.748 194.71 410.748C192.897 410.748 191.22 411.292 189.678 412.38C188.137 413.423 186.777 415.009 185.598 417.14L184.51 416.528C185.19 415.077 186.097 413.717 187.23 412.448C188.409 411.133 189.86 410.068 191.582 409.252C193.35 408.436 195.458 408.028 197.906 408.028Z" fill="white"/>
<path opacity="0.8" d="M149.426 472.813C149.372 472.915 149.294 472.966 149.192 472.966C149.114 472.966 149.012 472.912 148.886 472.804C148.766 472.69 148.601 472.567 148.391 472.435C148.181 472.297 147.917 472.171 147.599 472.057C147.287 471.943 146.9 471.886 146.438 471.886C145.976 471.886 145.568 471.952 145.214 472.084C144.866 472.216 144.572 472.396 144.332 472.624C144.098 472.852 143.918 473.116 143.792 473.416C143.672 473.716 143.612 474.031 143.612 474.361C143.612 474.793 143.702 475.15 143.882 475.432C144.068 475.714 144.311 475.954 144.611 476.152C144.911 476.35 145.25 476.518 145.628 476.656C146.012 476.788 146.405 476.92 146.807 477.052C147.209 477.184 147.599 477.331 147.977 477.493C148.361 477.649 148.703 477.847 149.003 478.087C149.303 478.327 149.543 478.624 149.723 478.978C149.909 479.326 150.002 479.761 150.002 480.283C150.002 480.817 149.909 481.321 149.723 481.795C149.543 482.263 149.279 482.671 148.931 483.019C148.583 483.367 148.157 483.643 147.653 483.847C147.149 484.045 146.573 484.144 145.925 484.144C145.085 484.144 144.362 483.997 143.756 483.703C143.15 483.403 142.619 482.995 142.163 482.479L142.415 482.083C142.487 481.993 142.571 481.948 142.667 481.948C142.721 481.948 142.79 481.984 142.874 482.056C142.958 482.128 143.06 482.218 143.18 482.326C143.3 482.428 143.444 482.542 143.612 482.668C143.78 482.788 143.975 482.902 144.197 483.01C144.419 483.112 144.674 483.199 144.962 483.271C145.25 483.343 145.577 483.379 145.943 483.379C146.447 483.379 146.897 483.304 147.293 483.154C147.689 482.998 148.022 482.788 148.292 482.524C148.568 482.26 148.778 481.948 148.922 481.588C149.066 481.222 149.138 480.832 149.138 480.418C149.138 479.968 149.045 479.599 148.859 479.311C148.679 479.017 148.439 478.774 148.139 478.582C147.839 478.384 147.497 478.219 147.113 478.087C146.735 477.955 146.345 477.826 145.943 477.7C145.541 477.574 145.148 477.433 144.764 477.277C144.386 477.121 144.047 476.923 143.747 476.683C143.447 476.437 143.204 476.134 143.018 475.774C142.838 475.408 142.748 474.952 142.748 474.406C142.748 473.98 142.829 473.569 142.991 473.173C143.153 472.777 143.39 472.429 143.702 472.129C144.014 471.823 144.398 471.58 144.854 471.4C145.316 471.214 145.841 471.121 146.429 471.121C147.089 471.121 147.68 471.226 148.202 471.436C148.73 471.646 149.21 471.967 149.642 472.399L149.426 472.813ZM154.497 484.144C153.891 484.144 153.417 483.976 153.075 483.64C152.739 483.304 152.571 482.785 152.571 482.083V475.963H151.284C151.218 475.963 151.164 475.945 151.122 475.909C151.08 475.873 151.059 475.822 151.059 475.756V475.423L152.589 475.315L152.805 472.111C152.817 472.057 152.841 472.009 152.877 471.967C152.913 471.925 152.964 471.904 153.03 471.904H153.435V475.324H156.261V475.963H153.435V482.038C153.435 482.284 153.465 482.497 153.525 482.677C153.591 482.851 153.678 482.995 153.786 483.109C153.9 483.223 154.032 483.307 154.182 483.361C154.332 483.415 154.494 483.442 154.668 483.442C154.884 483.442 155.07 483.412 155.226 483.352C155.382 483.286 155.517 483.217 155.631 483.145C155.745 483.067 155.838 482.998 155.91 482.938C155.982 482.872 156.039 482.839 156.081 482.839C156.129 482.839 156.177 482.869 156.225 482.929L156.459 483.307C156.231 483.559 155.94 483.763 155.586 483.919C155.238 484.069 154.875 484.144 154.497 484.144ZM163.232 479.671C162.38 479.701 161.645 479.77 161.027 479.878C160.415 479.98 159.908 480.121 159.506 480.301C159.11 480.481 158.816 480.697 158.624 480.949C158.432 481.195 158.336 481.477 158.336 481.795C158.336 482.095 158.384 482.356 158.48 482.578C158.582 482.794 158.714 482.974 158.876 483.118C159.044 483.256 159.236 483.358 159.452 483.424C159.668 483.49 159.893 483.523 160.127 483.523C160.475 483.523 160.793 483.487 161.081 483.415C161.375 483.337 161.645 483.232 161.891 483.1C162.143 482.962 162.377 482.8 162.593 482.614C162.809 482.428 163.022 482.227 163.232 482.011V479.671ZM157.967 476.314C158.435 475.846 158.927 475.492 159.443 475.252C159.959 475.012 160.544 474.892 161.198 474.892C161.678 474.892 162.098 474.97 162.458 475.126C162.818 475.276 163.115 475.495 163.349 475.783C163.589 476.065 163.769 476.41 163.889 476.818C164.009 477.22 164.069 477.67 164.069 478.168V484H163.727C163.547 484 163.436 483.916 163.394 483.748L163.268 482.596C163.022 482.836 162.776 483.052 162.53 483.244C162.29 483.436 162.038 483.598 161.774 483.73C161.51 483.862 161.225 483.964 160.919 484.036C160.613 484.108 160.277 484.144 159.911 484.144C159.605 484.144 159.308 484.099 159.02 484.009C158.732 483.919 158.474 483.781 158.246 483.595C158.024 483.409 157.844 483.172 157.706 482.884C157.574 482.59 157.508 482.239 157.508 481.831C157.508 481.453 157.616 481.102 157.832 480.778C158.048 480.454 158.387 480.172 158.849 479.932C159.311 479.692 159.902 479.5 160.622 479.356C161.348 479.212 162.218 479.128 163.232 479.104V478.168C163.232 477.34 163.052 476.704 162.692 476.26C162.338 475.81 161.81 475.585 161.108 475.585C160.676 475.585 160.307 475.645 160.001 475.765C159.701 475.885 159.446 476.017 159.236 476.161C159.026 476.305 158.855 476.437 158.723 476.557C158.591 476.677 158.48 476.737 158.39 476.737C158.324 476.737 158.27 476.722 158.228 476.692C158.186 476.662 158.15 476.623 158.12 476.575L157.967 476.314ZM167.802 482.047C168.15 482.563 168.531 482.926 168.945 483.136C169.365 483.34 169.836 483.442 170.358 483.442C170.892 483.442 171.357 483.346 171.753 483.154C172.155 482.962 172.488 482.689 172.752 482.335C173.022 481.975 173.223 481.54 173.355 481.03C173.487 480.52 173.553 479.947 173.553 479.311C173.553 478.075 173.307 477.145 172.815 476.521C172.323 475.897 171.633 475.585 170.745 475.585C170.109 475.585 169.554 475.738 169.08 476.044C168.606 476.35 168.18 476.776 167.802 477.322V482.047ZM167.802 476.602C168.192 476.074 168.648 475.66 169.17 475.36C169.692 475.054 170.298 474.901 170.988 474.901C171.528 474.901 172.011 475 172.437 475.198C172.863 475.396 173.223 475.681 173.517 476.053C173.817 476.425 174.045 476.884 174.201 477.43C174.357 477.97 174.435 478.585 174.435 479.275C174.435 480.001 174.348 480.664 174.174 481.264C174 481.858 173.745 482.368 173.409 482.794C173.079 483.214 172.674 483.541 172.194 483.775C171.714 484.003 171.165 484.117 170.547 484.117C169.911 484.117 169.368 483.997 168.918 483.757C168.474 483.511 168.09 483.148 167.766 482.668L167.703 483.775C167.685 483.925 167.604 484 167.46 484H166.938V470.905H167.802V476.602ZM177.797 470.905V484H176.933V470.905H177.797ZM187.107 478.618C187.107 478.138 187.038 477.709 186.9 477.331C186.768 476.947 186.579 476.623 186.333 476.359C186.087 476.095 185.793 475.894 185.451 475.756C185.115 475.612 184.743 475.54 184.335 475.54C183.873 475.54 183.459 475.612 183.093 475.756C182.727 475.9 182.409 476.107 182.139 476.377C181.875 476.647 181.662 476.971 181.5 477.349C181.338 477.727 181.23 478.15 181.176 478.618H187.107ZM181.131 479.167V479.338C181.131 480.01 181.209 480.601 181.365 481.111C181.521 481.621 181.743 482.05 182.031 482.398C182.319 482.74 182.667 482.998 183.075 483.172C183.483 483.346 183.939 483.433 184.443 483.433C184.893 483.433 185.283 483.385 185.613 483.289C185.943 483.187 186.219 483.076 186.441 482.956C186.669 482.83 186.849 482.719 186.981 482.623C187.113 482.521 187.209 482.47 187.269 482.47C187.347 482.47 187.407 482.5 187.449 482.56L187.683 482.848C187.539 483.028 187.347 483.196 187.107 483.352C186.873 483.508 186.609 483.643 186.315 483.757C186.027 483.865 185.715 483.952 185.379 484.018C185.049 484.084 184.716 484.117 184.38 484.117C183.768 484.117 183.21 484.012 182.706 483.802C182.202 483.586 181.77 483.274 181.41 482.866C181.05 482.458 180.771 481.96 180.573 481.372C180.381 480.778 180.285 480.1 180.285 479.338C180.285 478.696 180.375 478.105 180.555 477.565C180.741 477.019 181.005 476.551 181.347 476.161C181.695 475.765 182.118 475.456 182.616 475.234C183.12 475.012 183.69 474.901 184.326 474.901C184.83 474.901 185.298 474.988 185.73 475.162C186.162 475.336 186.537 475.591 186.855 475.927C187.173 476.257 187.422 476.665 187.602 477.151C187.788 477.637 187.881 478.195 187.881 478.825C187.881 478.957 187.863 479.047 187.827 479.095C187.791 479.143 187.731 479.167 187.647 479.167H181.131ZM196.232 476.242C196.202 476.272 196.172 476.299 196.142 476.323C196.118 476.341 196.082 476.35 196.034 476.35C195.974 476.35 195.893 476.311 195.791 476.233C195.689 476.149 195.551 476.059 195.377 475.963C195.203 475.867 194.984 475.78 194.72 475.702C194.462 475.618 194.147 475.576 193.775 475.576C193.259 475.576 192.8 475.669 192.398 475.855C192.002 476.035 191.666 476.296 191.39 476.638C191.114 476.98 190.904 477.394 190.76 477.88C190.622 478.366 190.553 478.912 190.553 479.518C190.553 480.148 190.625 480.706 190.769 481.192C190.919 481.678 191.129 482.089 191.399 482.425C191.669 482.755 191.996 483.007 192.38 483.181C192.764 483.355 193.19 483.442 193.658 483.442C194.09 483.442 194.45 483.391 194.738 483.289C195.032 483.187 195.272 483.076 195.458 482.956C195.65 482.836 195.8 482.725 195.908 482.623C196.016 482.521 196.106 482.47 196.178 482.47C196.25 482.47 196.31 482.5 196.358 482.56L196.583 482.848C196.445 483.028 196.271 483.196 196.061 483.352C195.851 483.508 195.614 483.643 195.35 483.757C195.086 483.871 194.798 483.958 194.486 484.018C194.18 484.084 193.859 484.117 193.523 484.117C192.953 484.117 192.431 484.015 191.957 483.811C191.489 483.601 191.084 483.301 190.742 482.911C190.406 482.515 190.142 482.032 189.95 481.462C189.764 480.892 189.671 480.244 189.671 479.518C189.671 478.834 189.761 478.21 189.941 477.646C190.121 477.082 190.385 476.596 190.733 476.188C191.081 475.78 191.504 475.465 192.002 475.243C192.506 475.015 193.082 474.901 193.73 474.901C194.312 474.901 194.828 474.994 195.278 475.18C195.728 475.366 196.121 475.618 196.457 475.936L196.232 476.242ZM202.072 474.901C202.714 474.901 203.287 475.012 203.791 475.234C204.301 475.45 204.73 475.759 205.078 476.161C205.426 476.563 205.69 477.049 205.87 477.619C206.056 478.183 206.149 478.816 206.149 479.518C206.149 480.22 206.056 480.853 205.87 481.417C205.69 481.981 205.426 482.464 205.078 482.866C204.73 483.268 204.301 483.577 203.791 483.793C203.287 484.009 202.714 484.117 202.072 484.117C201.43 484.117 200.854 484.009 200.344 483.793C199.84 483.577 199.411 483.268 199.057 482.866C198.709 482.464 198.442 481.981 198.256 481.417C198.076 480.853 197.986 480.22 197.986 479.518C197.986 478.816 198.076 478.183 198.256 477.619C198.442 477.049 198.709 476.563 199.057 476.161C199.411 475.759 199.84 475.45 200.344 475.234C200.854 475.012 201.43 474.901 202.072 474.901ZM202.072 483.442C202.606 483.442 203.071 483.352 203.467 483.172C203.869 482.986 204.202 482.722 204.466 482.38C204.736 482.038 204.937 481.627 205.069 481.147C205.201 480.661 205.267 480.118 205.267 479.518C205.267 478.924 205.201 478.384 205.069 477.898C204.937 477.412 204.736 476.998 204.466 476.656C204.202 476.308 203.869 476.041 203.467 475.855C203.071 475.669 202.606 475.576 202.072 475.576C201.538 475.576 201.07 475.669 200.668 475.855C200.272 476.041 199.939 476.308 199.669 476.656C199.405 476.998 199.204 477.412 199.066 477.898C198.934 478.384 198.868 478.924 198.868 479.518C198.868 480.118 198.934 480.661 199.066 481.147C199.204 481.627 199.405 482.038 199.669 482.38C199.939 482.722 200.272 482.986 200.668 483.172C201.07 483.352 201.538 483.442 202.072 483.442ZM209.517 475.045V484H208.662V475.045H209.517ZM209.886 471.958C209.886 472.066 209.862 472.168 209.814 472.264C209.772 472.354 209.715 472.435 209.643 472.507C209.571 472.579 209.487 472.636 209.391 472.678C209.295 472.72 209.193 472.741 209.085 472.741C208.977 472.741 208.875 472.72 208.779 472.678C208.683 472.636 208.599 472.579 208.527 472.507C208.455 472.435 208.398 472.354 208.356 472.264C208.314 472.168 208.293 472.066 208.293 471.958C208.293 471.85 208.314 471.748 208.356 471.652C208.398 471.55 208.455 471.463 208.527 471.391C208.599 471.319 208.683 471.262 208.779 471.22C208.875 471.178 208.977 471.157 209.085 471.157C209.193 471.157 209.295 471.178 209.391 471.22C209.487 471.262 209.571 471.319 209.643 471.391C209.715 471.463 209.772 471.55 209.814 471.652C209.862 471.748 209.886 471.85 209.886 471.958ZM213.39 476.611C213.804 476.095 214.281 475.681 214.821 475.369C215.367 475.057 215.973 474.901 216.639 474.901C217.131 474.901 217.563 474.979 217.935 475.135C218.313 475.291 218.625 475.516 218.871 475.81C219.117 476.104 219.303 476.458 219.429 476.872C219.555 477.286 219.618 477.754 219.618 478.276V484H218.754V478.276C218.754 477.436 218.562 476.779 218.178 476.305C217.794 475.825 217.209 475.585 216.423 475.585C215.841 475.585 215.295 475.735 214.785 476.035C214.281 476.329 213.831 476.74 213.435 477.268V484H212.571V475.045H213.048C213.198 475.045 213.285 475.12 213.309 475.27L213.39 476.611ZM227.39 476.152C227.342 476.236 227.273 476.278 227.183 476.278C227.117 476.278 227.033 476.242 226.931 476.17C226.829 476.092 226.691 476.008 226.517 475.918C226.349 475.822 226.139 475.738 225.887 475.666C225.635 475.588 225.329 475.549 224.969 475.549C224.645 475.549 224.348 475.597 224.078 475.693C223.814 475.783 223.586 475.906 223.394 476.062C223.208 476.218 223.064 476.401 222.962 476.611C222.86 476.815 222.809 477.031 222.809 477.259C222.809 477.541 222.881 477.775 223.025 477.961C223.169 478.147 223.355 478.306 223.583 478.438C223.817 478.57 224.084 478.684 224.384 478.78C224.684 478.876 224.987 478.972 225.293 479.068C225.605 479.164 225.911 479.272 226.211 479.392C226.511 479.506 226.775 479.65 227.003 479.824C227.237 479.998 227.426 480.211 227.57 480.463C227.714 480.715 227.786 481.021 227.786 481.381C227.786 481.771 227.717 482.134 227.579 482.47C227.441 482.806 227.237 483.097 226.967 483.343C226.703 483.589 226.376 483.784 225.986 483.928C225.596 484.072 225.149 484.144 224.645 484.144C224.015 484.144 223.472 484.045 223.016 483.847C222.56 483.643 222.152 483.379 221.792 483.055L221.99 482.749C222.02 482.701 222.053 482.665 222.089 482.641C222.131 482.617 222.185 482.605 222.251 482.605C222.329 482.605 222.422 482.653 222.53 482.749C222.644 482.845 222.794 482.95 222.98 483.064C223.166 483.172 223.394 483.274 223.664 483.37C223.94 483.466 224.279 483.514 224.681 483.514C225.059 483.514 225.392 483.463 225.68 483.361C225.968 483.253 226.208 483.109 226.4 482.929C226.592 482.749 226.736 482.539 226.832 482.299C226.934 482.053 226.985 481.795 226.985 481.525C226.985 481.225 226.913 480.976 226.769 480.778C226.625 480.58 226.436 480.412 226.202 480.274C225.968 480.136 225.701 480.019 225.401 479.923C225.107 479.827 224.804 479.731 224.492 479.635C224.18 479.539 223.874 479.434 223.574 479.32C223.28 479.206 223.016 479.062 222.782 478.888C222.548 478.714 222.359 478.504 222.215 478.258C222.071 478.006 221.999 477.694 221.999 477.322C221.999 477.004 222.068 476.698 222.206 476.404C222.344 476.11 222.539 475.852 222.791 475.63C223.049 475.408 223.361 475.231 223.727 475.099C224.093 474.967 224.504 474.901 224.96 474.901C225.506 474.901 225.989 474.979 226.409 475.135C226.835 475.291 227.222 475.531 227.57 475.855L227.39 476.152Z" fill="white"/>
</svg>
